<?xml version="1.0" encoding="iso-8859-1"?>
<!-- Generator: Adobe Illustrator 19.0.0, SVG Export Plug-In . SVG Version: 6.00 Build 0)  -->
<svg xmlns="http://www.w3.org/2000/svg" xmlns:xlink="http://www.w3.org/1999/xlink" version="1.1" id="Layer_1" x="0px" y="0px" viewBox="0 0 512 512" style="enable-background:new 0 0 512 512;" xml:space="preserve">
<circle style="fill:#00C3FF;" cx="256" cy="256" r="247.409"/>
<path style="fill:#00AAF0;" d="M377.372,399.1c15.142-39.563,23.679-85.879,24.579-134.509h25.288v-17.181h-25.288  c-1.191-64.31-15.725-124.583-41.25-170.526c-16.447-29.604-36.331-51.26-58.194-63.908C287.442,10.108,271.899,8.591,256,8.591  s-31.442,1.518-46.507,4.383c-21.863,12.65-41.748,34.305-58.194,63.908c-17.596,31.672-29.966,70.155-36.345,112.075  c-1.774-11.949-2.703-24.175-2.703-36.618c0-41.633,10.3-80.856,28.465-115.285C62.151,78.509,8.591,160.994,8.591,256  c0,136.641,110.768,247.409,247.409,247.409c95.006,0,177.491-53.561,218.945-132.125  C445.442,386.851,412.414,396.617,377.372,399.1z M358.641,399.737c-33.316-0.135-65.074-6.855-94.05-18.926V264.591h120.177  C383.82,313.988,374.723,360.724,358.641,399.737z M139.127,264.591h108.283v108.283  C200.879,349.143,162.857,311.121,139.127,264.591z M166.318,85.227c24.378-43.88,56.227-68.046,89.682-68.046  s65.305,24.166,89.682,68.046c24.141,43.454,37.907,100.767,39.085,162.183H264.591V84.761h-17.181v162.649H131.189  c-1.283-3.08-2.51-6.189-3.671-9.331C129.845,180.205,143.405,126.472,166.318,85.227z"/>
<path d="M437.02,74.98C388.668,26.629,324.38,0,256,0S123.332,26.629,74.98,74.98C26.629,123.332,0,187.62,0,256  s26.629,132.668,74.98,181.02C123.332,485.371,187.62,512,256,512s132.668-26.629,181.02-74.98C485.371,388.668,512,324.38,512,256  S485.371,123.332,437.02,74.98z M420.94,264.591h73.709c-1.435,40.368-12.928,78.216-32.058,111.105h-77.331  c6.83-22.79,11.722-47.404,14.383-72.991c0.49-4.719-2.937-8.942-7.656-9.434c-4.711-0.489-8.942,2.937-9.434,7.656  c-2.748,26.416-7.949,51.68-15.256,74.769H264.591v-9.736c0-4.744-3.846-8.591-8.591-8.591c-4.744,0-8.591,3.846-8.591,8.591v9.736  H144.702c-7.307-23.089-12.508-48.354-15.256-74.769c-0.491-4.719-4.705-8.14-9.434-7.656c-4.719,0.491-8.146,4.715-7.656,9.434  c2.662,25.587,7.554,50.201,14.383,72.991H49.41c-19.13-32.889-30.623-70.737-32.058-111.105H91.06c4.744,0,8.591-3.846,8.591-8.591  c0-4.744-3.846-8.591-8.591-8.591H17.352c1.435-40.368,12.928-78.216,32.058-111.105h77.331  c-6.83,22.79-11.722,47.404-14.383,72.992c-0.49,4.719,2.937,8.942,7.656,9.434c4.718,0.495,8.943-2.936,9.434-7.656  c2.748-26.416,7.949-51.68,15.256-74.769h102.706v9.736c0,4.744,3.846,8.591,8.591,8.591c4.744,0,8.591-3.846,8.591-8.591v-9.736  h102.707c7.307,23.089,12.508,48.354,15.256,74.769c0.459,4.417,4.189,7.703,8.534,7.703c0.297,0,0.597-0.015,0.899-0.047  c4.719-0.491,8.146-4.715,7.656-9.434c-2.662-25.587-7.554-50.201-14.383-72.992h77.331c19.13,32.889,30.623,70.737,32.058,111.105  h-73.71c-4.744,0-8.591,3.846-8.591,8.591C412.349,260.744,416.195,264.591,420.94,264.591z M174.884,440.901  c-9.286-14.02-17.409-30.218-24.201-48.024h96.727v101.386C221.129,490.908,195.656,472.262,174.884,440.901z M264.591,494.263  V392.877h96.727c-6.792,17.805-14.916,34.004-24.201,48.024C316.344,472.262,290.871,490.908,264.591,494.263z M337.116,71.099  c9.286,14.02,17.409,30.218,24.201,48.024h-96.727V17.737C290.871,21.092,316.344,39.738,337.116,71.099z M247.409,17.737v101.386  h-96.727c6.792-17.805,14.916-34.004,24.201-48.024C195.656,39.738,221.129,21.092,247.409,17.737z M451.587,119.123h-71.964  c-7.675-21.422-17.158-40.865-28.183-57.51c-9.398-14.189-19.766-26.088-30.813-35.54C374.28,41.173,420.331,74.594,451.587,119.123  z M191.372,26.073c-11.046,9.452-21.415,21.351-30.813,35.54c-11.026,16.645-20.507,36.089-28.183,57.51H60.413  C91.669,74.594,137.72,41.173,191.372,26.073z M60.413,392.877h71.964c7.675,21.422,17.158,40.865,28.183,57.51  c9.398,14.189,19.766,26.088,30.813,35.54C137.72,470.827,91.669,437.406,60.413,392.877z M320.628,485.927  c11.046-9.452,21.415-21.351,30.813-35.54c11.026-16.645,20.508-36.089,28.183-57.51h71.964  C420.331,437.406,374.28,470.827,320.628,485.927z"/>
<path d="M286.207,165.381c-4.501-1.499-9.365,0.932-10.867,5.434l-54.98,164.94c-1.5,4.5,0.932,9.366,5.434,10.867  c0.901,0.3,1.817,0.443,2.718,0.443c3.597,0,6.948-2.277,8.148-5.876l54.98-164.94C293.14,171.746,290.707,166.881,286.207,165.381z  "/>
<path d="M197.931,194.946c-3.355-3.355-8.794-3.355-12.148,0l-54.98,54.98c-3.355,3.355-3.355,8.794,0,12.148l54.98,54.98  c1.677,1.677,3.876,2.516,6.074,2.516c2.198,0,4.397-0.838,6.074-2.516c3.355-3.355,3.355-8.794,0-12.148L149.025,256l48.906-48.906  C201.286,203.74,201.286,198.3,197.931,194.946z"/>
<path d="M326.217,194.946c-3.355-3.355-8.794-3.355-12.148,0c-3.355,3.355-3.355,8.794,0,12.148L362.975,256l-48.906,48.906  c-3.355,3.355-3.355,8.794,0,12.148c1.677,1.677,3.876,2.516,6.074,2.516s4.397-0.838,6.074-2.516l54.98-54.98  c3.355-3.355,3.355-8.794,0-12.148L326.217,194.946z"/>
<g>
</g>
<g>
</g>
<g>
</g>
<g>
</g>
<g>
</g>
<g>
</g>
<g>
</g>
<g>
</g>
<g>
</g>
<g>
</g>
<g>
</g>
<g>
</g>
<g>
</g>
<g>
</g>
<g>
</g>
</svg>
