<?xml version="1.0" encoding="iso-8859-1"?>
<!-- Generator: Adobe Illustrator 19.0.0, SVG Export Plug-In . SVG Version: 6.00 Build 0)  -->
<svg xmlns="http://www.w3.org/2000/svg" xmlns:xlink="http://www.w3.org/1999/xlink" version="1.1" id="Layer_1" x="0px" y="0px" viewBox="0 0 512 512" style="enable-background:new 0 0 512 512;" xml:space="preserve">
<path style="fill:#D5DCED;" d="M210.183,54.407v293.226c0,25.303,65.641,45.817,146.613,45.817s146.613-20.513,146.613-45.817  V54.407H210.183z"/>
<path style="fill:#C7CFE2;" d="M356.796,182.121c40.007,0,77.735-4.905,106.234-13.81c13.531-4.229,24.356-9.178,32.361-14.729  V131.15h-1.438c-7.186,14.855-59.076,33.79-137.158,33.79c-6.43,0-12.68-0.131-18.741-0.377c-4.896-0.198-8.749-4.255-8.749-9.154  V54.407H210.183v293.226c0,22.364,51.304,40.959,119.123,44.984v-55.09c0-5.212,4.337-9.353,9.544-9.15  c5.911,0.231,11.897,0.356,17.946,0.356c40.007,0,77.735-4.905,106.234-13.81c13.531-4.229,24.356-9.178,32.361-14.729v-28.932  c-0.364,0.953-0.573,1.983-0.573,3.064c0,15.178-53.768,37.226-138.022,37.226c-6.43,0-12.68-0.131-18.741-0.377  c-4.896-0.198-8.749-4.255-8.749-9.154v-37.801c0-5.212,4.337-9.353,9.544-9.15c5.911,0.231,11.897,0.356,17.946,0.356  c40.007,0,77.735-4.905,106.234-13.81c13.531-4.229,24.356-9.178,32.361-14.729v-28.932c-0.364,0.953-0.573,1.983-0.573,3.064  c0,15.178-53.768,37.226-138.022,37.226c-6.43,0-12.68-0.131-18.741-0.377c-4.896-0.198-8.749-4.255-8.749-9.154v-37.801  c0-5.212,4.337-9.353,9.544-9.15C344.762,181.996,350.747,182.121,356.796,182.121z"/>
<ellipse style="fill:#E4EAF8;" cx="356.796" cy="54.407" rx="146.613" ry="45.817"/>
<path style="fill:#D5DCED;" d="M8.591,164.367v293.226c0,25.303,65.641,45.817,146.613,45.817s146.613-20.513,146.613-45.817  V164.367H8.591z"/>
<path style="fill:#C7CFE2;" d="M155.204,292.081c40.007,0,77.735-4.905,106.234-13.81c13.531-4.229,24.356-9.178,32.361-14.729  V241.11h-1.438c-7.186,14.855-59.076,33.79-137.158,33.79c-6.43,0-12.68-0.131-18.741-0.377c-4.896-0.198-8.749-4.255-8.749-9.154  V164.367H8.591v293.226c0,22.364,51.304,40.959,119.123,44.984v-55.09c0-5.212,4.337-9.353,9.544-9.15  c5.911,0.231,11.897,0.356,17.946,0.356c40.007,0,77.735-4.905,106.234-13.81c13.531-4.229,24.356-9.178,32.361-14.729v-28.932  c-0.364,0.953-0.573,1.983-0.573,3.064c0,15.178-53.768,37.226-138.022,37.226c-6.43,0-12.68-0.131-18.741-0.377  c-4.896-0.198-8.749-4.255-8.749-9.154V374.18c0-5.212,4.337-9.353,9.544-9.15c5.911,0.231,11.897,0.356,17.946,0.356  c40.007,0,77.735-4.905,106.234-13.81c13.531-4.229,24.356-9.178,32.361-14.729v-28.932c-0.364,0.953-0.573,1.983-0.573,3.064  c0,15.178-53.768,37.226-138.022,37.226c-6.43,0-12.68-0.131-18.741-0.377c-4.896-0.198-8.749-4.255-8.749-9.154v-37.801  c0-5.212,4.337-9.353,9.544-9.15C143.169,291.956,149.155,292.081,155.204,292.081z"/>
<ellipse style="fill:#E4EAF8;" cx="155.204" cy="164.367" rx="146.613" ry="45.817"/>
<path d="M261.437,123.77c-28.499-8.906-66.227-13.81-106.234-13.81s-77.735,4.905-106.234,13.81C16.934,133.781,0,147.82,0,164.367  v293.226c0,16.547,16.934,30.585,48.97,40.597C77.469,507.095,115.197,512,155.204,512s77.735-4.905,106.234-13.81  c32.036-10.012,48.97-24.05,48.97-40.597V164.367C310.407,147.82,293.473,133.781,261.437,123.77z M155.204,127.141  c84.254,0,138.022,22.048,138.022,37.226s-53.768,37.226-138.022,37.226S17.181,179.545,17.181,164.367  S70.949,127.141,155.204,127.141z M256.312,481.79c-26.884,8.402-62.792,13.029-101.108,13.029S80.98,490.191,54.096,481.79  c-27.247-8.514-36.914-18.355-36.914-24.197v-47.042c7.946,5.39,18.58,10.204,31.789,14.333  c28.499,8.906,66.227,13.81,106.234,13.81c6.244,0,12.522-0.121,18.66-0.361c4.741-0.186,8.434-4.178,8.249-8.919  c-0.186-4.741-4.193-8.444-8.919-8.249c-5.916,0.231-11.968,0.348-17.99,0.348c-84.254,0-138.022-22.048-138.022-37.226v-47.042  c7.946,5.39,18.58,10.204,31.789,14.333c28.499,8.906,66.227,13.81,106.234,13.81c6.244,0,12.522-0.121,18.66-0.361  c4.741-0.186,8.434-4.178,8.249-8.919c-0.186-4.742-4.193-8.449-8.919-8.249c-5.916,0.231-11.968,0.348-17.99,0.348  c-84.254,0-138.022-22.048-138.022-37.226v-47.042c7.946,5.39,18.58,10.204,31.789,14.333c28.499,8.906,66.227,13.81,106.234,13.81  c6.244,0,12.522-0.121,18.66-0.361c4.741-0.186,8.434-4.178,8.249-8.919c-0.186-4.742-4.193-8.43-8.919-8.249  c-5.916,0.231-11.968,0.348-17.99,0.348c-84.254,0-138.022-22.048-138.022-37.226v-47.042c7.946,5.39,18.58,10.204,31.789,14.333  c28.499,8.906,66.227,13.81,106.234,13.81s77.735-4.905,106.234-13.81c13.209-4.128,23.843-8.942,31.789-14.333v47.042  c0,8.309-16.663,17.157-30.933,22.21c-4.473,1.583-6.815,6.492-5.231,10.965c1.247,3.526,4.561,5.726,8.098,5.726  c0.951,0,1.92-0.159,2.867-0.495c8.434-2.986,17.573-6.995,25.199-12.172v47.073c0,8.309-16.663,17.157-30.933,22.21  c-4.473,1.583-6.815,6.492-5.231,10.965c1.247,3.526,4.561,5.726,8.098,5.726c0.951,0,1.92-0.159,2.867-0.495  c8.434-2.986,17.573-6.995,25.199-12.172v47.073c0,8.309-16.663,17.157-30.933,22.21c-4.473,1.583-6.815,6.492-5.231,10.965  c1.247,3.526,4.561,5.726,8.098,5.726c0.951,0,1.92-0.159,2.867-0.495c8.434-2.986,17.573-6.995,25.199-12.172v47.073  C293.226,463.434,283.559,473.276,256.312,481.79z"/>
<path d="M226.982,268.908c-5.74,1.037-11.755,1.956-17.88,2.73c-4.706,0.596-8.041,4.893-7.445,9.601  c0.549,4.341,4.247,7.514,8.513,7.514c0.359,0,0.723-0.023,1.088-0.069c6.423-0.812,12.742-1.778,18.779-2.868  c4.669-0.843,7.77-5.312,6.926-9.981C236.12,271.164,231.646,268.065,226.982,268.908z"/>
<path d="M226.982,342.214c-5.74,1.037-11.755,1.956-17.88,2.73c-4.706,0.596-8.041,4.893-7.445,9.601  c0.549,4.341,4.247,7.514,8.513,7.514c0.359,0,0.723-0.023,1.088-0.069c6.423-0.812,12.742-1.778,18.779-2.868  c4.669-0.843,7.77-5.312,6.926-9.981C236.12,344.471,231.646,341.372,226.982,342.214z"/>
<path d="M226.982,415.521c-5.74,1.037-11.755,1.956-17.88,2.73c-4.706,0.596-8.041,4.893-7.445,9.601  c0.549,4.341,4.247,7.514,8.513,7.514c0.359,0,0.723-0.023,1.088-0.069c6.423-0.812,12.742-1.778,18.779-2.868  c4.669-0.843,7.77-5.312,6.926-9.981C236.12,417.777,231.646,414.679,226.982,415.521z"/>
<path d="M463.03,13.81C434.531,4.905,396.803,0,356.796,0s-77.735,4.905-106.234,13.81c-32.036,10.011-48.97,24.05-48.97,40.597  v36.656c0,4.744,3.846,8.591,8.591,8.591c4.744,0,8.591-3.846,8.591-8.591V80.672c7.946,5.39,18.58,10.204,31.789,14.333  c28.499,8.906,66.227,13.81,106.234,13.81s77.735-4.905,106.234-13.81c13.209-4.128,23.843-8.942,31.789-14.333v47.042  c0,8.309-16.663,17.157-30.933,22.21c-4.473,1.583-6.814,6.492-5.231,10.965c1.249,3.526,4.561,5.726,8.098,5.726  c0.951,0,1.92-0.159,2.867-0.495c8.434-2.986,17.573-6.995,25.199-12.172v47.073c0,8.309-16.663,17.157-30.933,22.21  c-4.473,1.583-6.814,6.492-5.231,10.965c1.249,3.526,4.561,5.726,8.098,5.726c0.951,0,1.92-0.159,2.867-0.495  c8.434-2.986,17.573-6.995,25.199-12.172v47.073c0,8.309-16.663,17.157-30.933,22.21c-4.473,1.583-6.814,6.492-5.231,10.965  c1.249,3.526,4.561,5.726,8.098,5.726c0.951,0,1.92-0.159,2.867-0.495c8.434-2.986,17.573-6.995,25.199-12.172v47.073  c0,5.842-9.667,15.683-36.914,24.197c-26.884,8.402-62.792,13.029-101.108,13.029c-6.008,0-12.062-0.117-17.994-0.348  c-4.747-0.188-8.734,3.51-8.918,8.249c-0.184,4.741,3.508,8.734,8.249,8.918c6.154,0.239,12.432,0.361,18.663,0.361  c40.007,0,77.735-4.905,106.234-13.81C495.066,378.218,512,364.18,512,347.633V54.407C512,37.861,495.066,23.821,463.03,13.81z   M356.796,91.633c-84.255,0-138.022-22.048-138.022-37.226s53.767-37.226,138.022-37.226s138.022,22.048,138.022,37.226  S441.052,91.633,356.796,91.633z"/>
<path d="M356.796,182.121c6.244,0,12.523-0.121,18.661-0.361c4.741-0.186,8.434-4.177,8.248-8.919  c-0.184-4.741-4.183-8.449-8.919-8.249c-11.818,0.462-24.106,0.463-35.984,0c-4.747-0.195-8.734,3.508-8.918,8.249  c-0.184,4.741,3.508,8.734,8.249,8.918C344.287,181.999,350.567,182.121,356.796,182.121z"/>
<path d="M411.761,178.792c0.359,0,0.724-0.023,1.088-0.069c6.425-0.812,12.744-1.778,18.78-2.868  c4.669-0.843,7.769-5.312,6.926-9.981c-0.843-4.669-5.309-7.772-9.982-6.925c-5.739,1.037-11.754,1.956-17.879,2.73  c-4.707,0.596-8.04,4.893-7.444,9.601C403.798,175.619,407.498,178.792,411.761,178.792z"/>
<path d="M338.133,255.066c6.154,0.239,12.432,0.361,18.663,0.361c6.244,0,12.523-0.121,18.661-0.361  c4.741-0.186,8.434-4.177,8.248-8.919c-0.184-4.741-4.183-8.43-8.919-8.249c-11.818,0.462-24.106,0.463-35.984,0  c-4.747-0.178-8.734,3.508-8.918,8.249C329.699,250.889,333.392,254.881,338.133,255.066z"/>
<path d="M403.251,244.585c0.549,4.341,4.247,7.514,8.512,7.514c0.359,0,0.724-0.023,1.088-0.069  c6.425-0.812,12.744-1.778,18.78-2.868c4.669-0.843,7.769-5.312,6.926-9.981c-0.843-4.669-5.309-7.772-9.982-6.925  c-5.739,1.037-11.754,1.956-17.879,2.73C405.987,235.58,402.655,239.877,403.251,244.585z"/>
<path d="M374.786,311.204c-11.828,0.462-24.132,0.462-35.977,0c-4.752-0.183-8.734,3.508-8.918,8.249s3.508,8.734,8.249,8.918  c6.142,0.239,12.42,0.361,18.656,0.361c6.244,0,12.523-0.121,18.661-0.361c4.741-0.186,8.434-4.177,8.248-8.919  C383.521,314.713,379.523,311.018,374.786,311.204z"/>
<path d="M403.251,317.891c0.549,4.341,4.247,7.514,8.512,7.514c0.359,0,0.724-0.023,1.088-0.069  c6.425-0.812,12.744-1.778,18.78-2.868c4.669-0.843,7.769-5.312,6.926-9.981s-5.309-7.77-9.982-6.925  c-5.739,1.037-11.754,1.956-17.879,2.73C405.987,308.886,402.655,313.184,403.251,317.891z"/>
<g>
</g>
<g>
</g>
<g>
</g>
<g>
</g>
<g>
</g>
<g>
</g>
<g>
</g>
<g>
</g>
<g>
</g>
<g>
</g>
<g>
</g>
<g>
</g>
<g>
</g>
<g>
</g>
<g>
</g>
</svg>
