<?xml version="1.0" encoding="iso-8859-1"?>
<!-- Generator: Adobe Illustrator 19.0.0, SVG Export Plug-In . SVG Version: 6.00 Build 0)  -->
<svg xmlns="http://www.w3.org/2000/svg" xmlns:xlink="http://www.w3.org/1999/xlink" version="1.1" id="Layer_1" x="0px" y="0px" viewBox="0 0 511.999 511.999" style="enable-background:new 0 0 511.999 511.999;" xml:space="preserve">
<path style="fill:#8CE16E;" d="M241.907,8.591c-100.815,0-183.808,81.258-183.808,182.073c0,92.827,54.978,156.97,54.978,239.44  c0,12.183-7.623,39.141-13.036,56.751c-2.533,8.238,3.656,16.556,12.274,16.556h165.701c10.122,0,18.327-8.205,18.327-18.327v-27.49  c0-15.182,12.307-27.49,27.49-27.49h45.817c20.243,0,36.653-16.41,36.653-36.653v-66.702c0-3.945,2.525-7.446,6.267-8.694  l26.379-8.793c12.062-4.02,18.17-17.44,13.28-29.177l-31.122-74.692c-3.723-8.934-5.64-18.518-5.64-28.197v-12.829  c0-86.033-69.743-155.776-155.776-155.776L241.907,8.591z"/>
<path style="fill:#7DC86E;" d="M195.789,486.852c4.761-17.608,11.468-44.567,11.468-56.75c0-82.47-48.364-146.613-48.364-239.44  c0-89.379,57.424-163.254,132.244-178.893c-10.159-2.082-20.676-3.18-31.451-3.18h-17.783  c-100.815,0-183.808,81.258-183.808,182.073c0,92.827,54.978,156.97,54.978,239.44c0,12.183-7.623,39.141-13.036,56.75  c-2.531,8.238,3.656,16.557,12.274,16.557h94.276C199.005,503.409,193.561,495.09,195.789,486.852z"/>
<circle style="fill:#9BF57D;" cx="241.361" cy="201.02" r="137.45"/>
<circle style="fill:#B4FF8C;" cx="241.361" cy="201.02" r="82.47"/>
<path style="fill:#8CE16E;" d="M187.255,327.403c-13.31-42.094-28.362-84.953-28.362-136.74c0-46.389,15.473-88.598,40.815-120.66  c-55.546,17.645-95.794,69.627-95.794,131.017C103.913,257.718,138.246,306.394,187.255,327.403z"/>
<path d="M103.977,375.177c0.771,0,1.555-0.104,2.336-0.324c4.567-1.287,7.225-6.032,5.938-10.598  c-4.954-17.576-11.419-34.265-17.671-50.406c-13.713-35.397-27.892-71.998-27.892-121.991c0-96.317,78.359-174.676,174.676-174.676  h18.327c23.503,0,45.956,5.371,66.741,15.965c4.228,2.155,9.4,0.474,11.555-3.752s0.474-9.4-3.754-11.555  C311.009,6.001,285.929,0,259.69,0h-18.327C136.437,0,50.915,84.674,49.523,189.274c-0.011,0.18-0.017,0.363-0.017,0.546v2.037  c0,53.204,14.769,91.328,29.052,128.198c6.389,16.492,12.424,32.069,17.156,48.86C96.782,372.703,100.227,375.177,103.977,375.177z"/>
<path d="M351.477,49.301c3.486,2.783,6.883,5.76,10.098,8.846c1.665,1.599,3.807,2.393,5.947,2.393c2.259,0,4.512-0.884,6.199-2.642  c3.285-3.424,3.174-8.861-0.25-12.146c-3.591-3.445-7.382-6.767-11.273-9.875c-3.707-2.961-9.112-2.357-12.074,1.35  C347.165,40.934,347.771,46.339,351.477,49.301z"/>
<path d="M460.158,276.781l-31.123-74.695c-3.303-7.927-4.978-16.302-4.978-24.89v-12.829c0-32.936-9.709-64.717-28.076-91.905  c-2.656-3.931-7.997-4.965-11.927-2.309c-3.932,2.656-4.965,7.996-2.31,11.927c16.441,24.337,25.132,52.791,25.132,82.287v12.829  c0,10.869,2.12,21.466,6.3,31.499l31.123,74.694c1.436,3.449,1.375,7.221-0.173,10.619c-1.547,3.4-4.351,5.923-7.895,7.104  l-26.379,8.793c-7.261,2.42-12.139,9.189-12.139,16.843v66.701c0,15.473-12.588,28.063-28.063,28.063h-45.817  c-19.895,0-36.081,16.186-36.081,36.081v27.49c0,5.369-4.367,9.736-9.736,9.736h-165.7c-1.872,0-2.949-1.081-3.426-1.726  c-0.47-0.636-1.175-1.962-0.637-3.716c8.901-28.958,13.414-48.901,13.414-59.275c0-8.271-0.442-16.58-1.313-24.697  c-0.505-4.717-4.742-8.128-9.458-7.625c-4.718,0.506-8.131,4.742-7.625,9.459c0.806,7.512,1.215,15.203,1.215,22.864  c0,8.295-4.613,28.06-12.656,54.226c-2.012,6.546-0.832,13.461,3.24,18.973c4.083,5.528,10.369,8.698,17.245,8.698h165.701  c14.842,0,26.917-12.075,26.917-26.917v-27.49c0-10.421,8.478-18.899,18.899-18.899h45.817c24.947,0,45.244-20.297,45.244-45.244  v-66.702c0-0.247,0.158-0.466,0.392-0.543l26.379-8.793c8.005-2.669,14.603-8.604,18.099-16.285  C463.259,293.445,463.404,284.571,460.158,276.781z"/>
<path d="M249.953,210.183v-18.327c0-14.842-12.075-26.917-26.917-26.917c-14.842,0-26.917,12.075-26.917,26.917v18.327  c0,14.842,12.075,26.917,26.917,26.917C237.879,237.101,249.953,225.026,249.953,210.183z M232.772,210.183  c0,5.369-4.367,9.736-9.736,9.736c-5.369,0-9.736-4.367-9.736-9.736v-18.327c0-5.369,4.367-9.736,9.736-9.736  c5.369,0,9.736,4.367,9.736,9.736V210.183z"/>
<path d="M304.933,118.55v-18.327c0-14.842-12.075-26.917-26.917-26.917s-26.917,12.075-26.917,26.917v18.327  c0,14.842,12.075,26.917,26.917,26.917S304.933,133.393,304.933,118.55z M287.752,118.55c0,5.369-4.367,9.736-9.736,9.736  c-5.369,0-9.736-4.367-9.736-9.736v-18.327c0-5.369,4.367-9.736,9.736-9.736c5.369,0,9.736,4.367,9.736,9.736V118.55z"/>
<path d="M185.81,100.224c0-14.842-12.075-26.917-26.917-26.917c-14.842,0-26.917,12.075-26.917,26.917v18.327  c0,14.842,12.075,26.917,26.917,26.917s26.917-12.075,26.917-26.917V100.224z M168.629,118.55c0,5.369-4.367,9.736-9.736,9.736  c-5.369,0-9.736-4.367-9.736-9.736v-18.327c0-5.369,4.367-9.736,9.736-9.736c5.369,0,9.736,4.367,9.736,9.736V118.55z"/>
<path d="M369.077,210.183v-18.327c0-14.842-12.075-26.917-26.917-26.917s-26.917,12.075-26.917,26.917v18.327  c0,14.842,12.075,26.917,26.917,26.917S369.077,225.026,369.077,210.183z M351.895,210.183c0,5.369-4.367,9.736-9.736,9.736  c-5.369,0-9.736-4.367-9.736-9.736v-18.327c0-5.369,4.367-9.736,9.736-9.736c5.369,0,9.736,4.367,9.736,9.736V210.183z"/>
<path d="M323.833,328.734c14.842,0,26.917-12.075,26.917-26.917V283.49c0-14.842-12.075-26.917-26.917-26.917  s-26.917,12.075-26.917,26.917v18.327C296.915,316.659,308.99,328.734,323.833,328.734z M314.097,283.49  c0-5.369,4.367-9.736,9.736-9.736s9.736,4.367,9.736,9.736v18.327c0,5.369-4.367,9.736-9.736,9.736s-9.736-4.367-9.736-9.736V283.49  z"/>
<path d="M131.976,283.49v18.327c0,14.842,12.075,26.917,26.917,26.917s26.917-12.075,26.917-26.917V283.49  c0-14.842-12.075-26.917-26.917-26.917C144.051,256.573,131.976,268.648,131.976,283.49z M149.157,283.49  c0-5.369,4.367-9.736,9.736-9.736c5.369,0,9.736,4.367,9.736,9.736v18.327c0,5.369-4.367,9.736-9.736,9.736  c-5.369,0-9.736-4.367-9.736-9.736V283.49z"/>
<path d="M168.056,237.101c4.744,0,8.591-3.846,8.591-8.591v-54.98c0-2.978-1.542-5.743-4.074-7.308  c-2.533-1.565-5.695-1.708-8.358-0.376l-18.327,9.163c-4.244,2.122-5.964,7.281-3.842,11.525c2.122,4.244,7.28,5.964,11.525,3.842  l5.894-2.947v41.08C159.466,233.254,163.312,237.101,168.056,237.101z"/>
<path d="M268.853,328.734c4.745,0,8.591-3.846,8.591-8.591v-54.98c0-2.978-1.542-5.742-4.074-7.308  c-2.534-1.566-5.697-1.708-8.359-0.376l-18.327,9.163c-4.244,2.121-5.964,7.281-3.842,11.525c2.121,4.244,7.281,5.964,11.525,3.842  l5.894-2.947v41.08C260.262,324.887,264.109,328.734,268.853,328.734z"/>
<path d="M287.179,237.101c4.745,0,8.591-3.846,8.591-8.591v-54.98c0-2.978-1.542-5.743-4.074-7.308  c-2.535-1.566-5.696-1.707-8.359-0.376l-18.327,9.163c-4.243,2.122-5.963,7.281-3.842,11.525c2.121,4.245,7.28,5.964,11.526,3.842  l5.894-2.947v41.08C278.589,233.254,282.435,237.101,287.179,237.101z"/>
<path d="M223.036,145.468c4.744,0,8.591-3.846,8.591-8.591v-54.98c0-2.978-1.542-5.743-4.074-7.308  c-2.533-1.565-5.695-1.707-8.358-0.376l-18.327,9.163c-4.244,2.122-5.964,7.281-3.842,11.525c2.122,4.244,7.28,5.964,11.525,3.842  l5.894-2.947v41.08C214.446,141.621,218.292,145.468,223.036,145.468z"/>
<path d="M223.036,328.734c4.744,0,8.591-3.846,8.591-8.591v-54.98c0-2.978-1.542-5.743-4.074-7.308s-5.695-1.707-8.358-0.376  l-18.327,9.163c-4.244,2.122-5.964,7.281-3.842,11.525c2.122,4.244,7.28,5.964,11.525,3.842l5.894-2.947v41.08  C214.446,324.887,218.292,328.734,223.036,328.734z"/>
<path d="M319.991,83.377c-4.243,2.122-5.963,7.281-3.842,11.525c2.121,4.245,7.281,5.964,11.526,3.842l5.894-2.947v41.08  c0,4.744,3.845,8.591,8.591,8.591c4.745,0,8.591-3.846,8.591-8.591v-54.98c0-2.978-1.542-5.743-4.074-7.308  c-2.535-1.566-5.697-1.707-8.359-0.376L319.991,83.377z"/>
<path d="M122.24,237.101c4.744,0,8.591-3.846,8.591-8.591v-54.98c0-2.978-1.542-5.743-4.074-7.308  c-2.533-1.565-5.696-1.708-8.358-0.376l-18.327,9.163c-4.244,2.122-5.964,7.281-3.842,11.525c2.121,4.244,7.281,5.964,11.525,3.842  l5.894-2.947v41.08C113.649,233.254,117.496,237.101,122.24,237.101z"/>
<g>
</g>
<g>
</g>
<g>
</g>
<g>
</g>
<g>
</g>
<g>
</g>
<g>
</g>
<g>
</g>
<g>
</g>
<g>
</g>
<g>
</g>
<g>
</g>
<g>
</g>
<g>
</g>
<g>
</g>
</svg>
