<?xml version="1.0" encoding="utf-8"?>
<!-- Generator: Adobe Illustrator 22.0.0, SVG Export Plug-In . SVG Version: 6.00 Build 0)  -->
<svg version="1.1" xmlns="http://www.w3.org/2000/svg" xmlns:xlink="http://www.w3.org/1999/xlink" x="0px" y="0px"
	 viewBox="0 0 256 256" style="enable-background:new 0 0 256 256;" xml:space="preserve">
<style type="text/css">
	.st0{display:none;}
	.st1{display:inline;}
	.st2{fill:none;stroke:#6B1D1D;stroke-width:0.5;stroke-miterlimit:10;}
	.st3{fill:#3A312A;}
	.st4{fill:#87796F;}
	.st5{fill:#D5DE58;}
	.st6{fill:#695B51;}
	.st7{fill:#FCE8CB;}
	.st8{fill:#F16C7A;}
	.st9{fill:#8AC6DD;}
	.st10{fill:#DECAAD;}
	.st11{fill:#D6DF58;}
	.st12{fill-rule:evenodd;clip-rule:evenodd;fill:#FCE8CB;}
	.st13{fill:#F5978A;}
	.st14{fill:#D7E057;}
	.st15{fill-rule:evenodd;clip-rule:evenodd;fill:#87796F;}
	.st16{fill:#6CA8BF;}
	.st17{fill:#B9C239;}
	.st18{fill:#D34E5C;}
	.st19{fill:#FAE6CA;}
	.st20{fill:#F8E4C8;}
	.st21{fill:#8AC5DC;}
	.st22{fill:#EF6D7A;}
	.st23{fill:#EB6E7A;}
	.st24{fill:#89C4DB;}
	.st25{fill-rule:evenodd;clip-rule:evenodd;fill:#F16C7A;}
	.st26{fill:#F7E3C7;}
	.st27{fill:#F6E2C6;}
	.st28{fill:#ED6E7A;}
	.st29{fill:#8AC3DA;}
	.st30{fill:#D5DC57;}
	.st31{fill-rule:evenodd;clip-rule:evenodd;fill:#D7E057;}
	.st32{fill-rule:evenodd;clip-rule:evenodd;fill:#F8E4C8;}
	.st33{fill:#D4DB56;}
	.st34{fill:#F59689;}
	.st35{fill:#DDC9AC;}
	.st36{fill:#D24E5C;}
	.st37{fill:#6A5C52;}
	.st38{fill:#6CA6BE;}
	.st39{fill:#B8C136;}
	.st40{fill-rule:evenodd;clip-rule:evenodd;fill:#FAE6CA;}
</style>
<g id="Layer_2" class="st0">
	<g class="st1">
		<g>
			<line class="st2" x1="0" y1="4.829" x2="256" y2="4.829"/>
			<line class="st2" x1="0" y1="16.56" x2="256" y2="16.56"/>
			<line class="st2" x1="0" y1="28.29" x2="256" y2="28.29"/>
			<line class="st2" x1="0" y1="40.021" x2="256" y2="40.021"/>
			<line class="st2" x1="0" y1="51.751" x2="256" y2="51.751"/>
			<line class="st2" x1="0" y1="63.482" x2="256" y2="63.482"/>
			<line class="st2" x1="0" y1="75.213" x2="256" y2="75.213"/>
			<line class="st2" x1="0" y1="86.943" x2="256" y2="86.943"/>
			<line class="st2" x1="0" y1="98.674" x2="256" y2="98.674"/>
			<line class="st2" x1="0" y1="110.404" x2="256" y2="110.404"/>
			<line class="st2" x1="0" y1="122.135" x2="256" y2="122.135"/>
			<line class="st2" x1="0" y1="133.865" x2="256" y2="133.865"/>
			<line class="st2" x1="0" y1="145.596" x2="256" y2="145.596"/>
			<line class="st2" x1="0" y1="157.326" x2="256" y2="157.326"/>
			<line class="st2" x1="0" y1="169.057" x2="256" y2="169.057"/>
			<line class="st2" x1="0" y1="180.788" x2="256" y2="180.788"/>
			<line class="st2" x1="0" y1="192.518" x2="256" y2="192.518"/>
			<line class="st2" x1="0" y1="204.249" x2="256" y2="204.249"/>
			<line class="st2" x1="0" y1="215.979" x2="256" y2="215.979"/>
			<line class="st2" x1="0" y1="227.71" x2="256" y2="227.71"/>
			<line class="st2" x1="0" y1="239.44" x2="256" y2="239.44"/>
			<line class="st2" x1="0" y1="251.171" x2="256" y2="251.171"/>
		</g>
		<g>
			<line class="st2" x1="251.171" y1="0" x2="251.171" y2="256"/>
			<line class="st2" x1="239.44" y1="0" x2="239.44" y2="256"/>
			<line class="st2" x1="227.71" y1="0" x2="227.71" y2="256"/>
			<line class="st2" x1="215.979" y1="0" x2="215.979" y2="256"/>
			<line class="st2" x1="204.249" y1="0" x2="204.249" y2="256"/>
			<line class="st2" x1="192.518" y1="0" x2="192.518" y2="256"/>
			<line class="st2" x1="180.788" y1="0" x2="180.788" y2="256"/>
			<line class="st2" x1="169.057" y1="0" x2="169.057" y2="256"/>
			<line class="st2" x1="157.326" y1="0" x2="157.326" y2="256"/>
			<line class="st2" x1="145.596" y1="0" x2="145.596" y2="256"/>
			<line class="st2" x1="133.865" y1="0" x2="133.865" y2="256"/>
			<line class="st2" x1="122.135" y1="0" x2="122.135" y2="256"/>
			<line class="st2" x1="110.404" y1="0" x2="110.404" y2="256"/>
			<line class="st2" x1="98.674" y1="0" x2="98.674" y2="256"/>
			<line class="st2" x1="86.943" y1="0" x2="86.943" y2="256"/>
			<line class="st2" x1="75.213" y1="0" x2="75.213" y2="256"/>
			<line class="st2" x1="63.482" y1="0" x2="63.482" y2="256"/>
			<line class="st2" x1="51.751" y1="0" x2="51.751" y2="256"/>
			<line class="st2" x1="40.021" y1="0" x2="40.021" y2="256"/>
			<line class="st2" x1="28.29" y1="0" x2="28.29" y2="256"/>
			<line class="st2" x1="16.56" y1="0" x2="16.56" y2="256"/>
			<line class="st2" x1="4.829" y1="0" x2="4.829" y2="256"/>
		</g>
	</g>
</g>
<g id="Layer_1">
	<g>
		<path class="st14" d="M47.911,26.228c0,0,3.408,12.659,13.222,13.246c0,0-13.1,4.525-13.321,14.202
			c0,0-2.578-13.572-12.925-14.059C34.887,39.618,46.937,37.792,47.911,26.228z"/>
		<path class="st3" d="M47.811,55.176c-0.713,0-1.335-0.506-1.472-1.217c-0.024-0.124-2.495-12.418-11.523-12.843
			c-0.77-0.037-1.387-0.651-1.427-1.421c-0.04-0.771,0.511-1.445,1.273-1.561c0.441-0.069,10.894-1.817,11.754-12.032
			c0.061-0.725,0.634-1.301,1.359-1.367c0.72-0.065,1.393,0.398,1.583,1.102c0.032,0.116,3.259,11.626,11.863,12.14
			c0.714,0.043,1.298,0.584,1.396,1.292c0.098,0.708-0.319,1.388-0.994,1.623c-0.121,0.042-12.118,4.311-12.312,12.819
			c-0.018,0.767-0.61,1.395-1.375,1.459C47.895,55.175,47.853,55.176,47.811,55.176z M40.07,39.447
			c3.878,1.969,6.23,5.746,7.587,8.876c2.026-4.022,5.941-6.787,8.949-8.427c-4.134-1.842-6.783-5.651-8.334-8.722
			C46.479,35.534,43,38.042,40.07,39.447z"/>
		<path class="st14" d="M26.212,43.209c0,0,2.411,8.954,9.352,9.369c0,0-9.266,3.201-9.422,10.045c0,0-1.824-9.6-9.142-9.944
			C17,52.679,25.524,51.388,26.212,43.209z"/>
		<path class="st3" d="M26.141,64.124c-0.713,0-1.337-0.507-1.472-1.22c-0.016-0.082-1.704-8.441-7.739-8.726
			c-0.77-0.037-1.387-0.651-1.427-1.421c-0.04-0.771,0.511-1.445,1.273-1.561c0.296-0.047,7.364-1.243,7.942-8.113
			c0.061-0.726,0.635-1.303,1.36-1.368c0.732-0.066,1.392,0.4,1.582,1.102l0,0c0.021,0.079,2.227,7.919,7.994,8.264
			c0.715,0.043,1.299,0.584,1.396,1.293c0.098,0.709-0.319,1.388-0.996,1.622c-0.081,0.028-8.282,2.953-8.413,8.662
			c-0.018,0.767-0.611,1.397-1.376,1.461C26.224,64.122,26.182,64.124,26.141,64.124z M21.622,52.596
			c2.107,1.332,3.523,3.394,4.447,5.28c1.376-2.232,3.515-3.872,5.365-4.973c-2.287-1.269-3.884-3.35-4.941-5.224
			C25.319,49.966,23.478,51.555,21.622,52.596z"/>
		<path class="st14" d="M26.212,16.551c0,0,2.411,8.954,9.352,9.37c0,0-9.266,3.201-9.422,10.045c0,0-1.824-9.6-9.142-9.944
			C17,26.022,25.524,24.731,26.212,16.551z"/>
		<path class="st3" d="M26.141,37.466c-0.713,0-1.337-0.507-1.472-1.22c-0.016-0.082-1.704-8.442-7.739-8.726
			c-0.771-0.037-1.388-0.651-1.428-1.421c-0.04-0.771,0.511-1.445,1.273-1.56c0.296-0.047,7.364-1.243,7.942-8.114
			c0.061-0.726,0.635-1.303,1.36-1.368c0.732-0.067,1.392,0.399,1.582,1.102l0,0c0.021,0.079,2.227,7.92,7.994,8.265
			c0.714,0.043,1.299,0.584,1.396,1.294c0.098,0.709-0.32,1.388-0.996,1.622c-0.081,0.028-8.282,2.952-8.413,8.662
			c-0.018,0.767-0.611,1.397-1.376,1.461C26.224,37.465,26.182,37.466,26.141,37.466z M21.622,25.939
			c2.107,1.332,3.523,3.394,4.447,5.28c1.376-2.233,3.515-3.872,5.365-4.972c-2.287-1.269-3.884-3.35-4.941-5.224
			C25.319,23.309,23.478,24.898,21.622,25.939z"/>
		<path class="st19" d="M239.243,90.383c-35.613-14.752-75.628-14.752-111.241,0c0,49.689,0,99.377,0,149.065
			c35.613-14.751,75.628-14.751,111.241,0C239.243,189.76,239.243,140.072,239.243,90.383z"/>
		<path class="st3" d="M239.243,240.949c-0.194,0-0.389-0.038-0.574-0.114c-35.497-14.703-74.596-14.703-110.093,0
			c-0.464,0.191-0.992,0.14-1.408-0.139c-0.417-0.278-0.667-0.746-0.667-1.247V90.383c0-0.607,0.365-1.154,0.926-1.386
			c36.239-15.011,76.152-15.01,112.39,0c0.561,0.232,0.926,0.779,0.926,1.386v149.065c0,0.501-0.25,0.969-0.666,1.247
			C239.826,240.863,239.535,240.949,239.243,240.949z M129.501,91.389v145.833c34.991-13.889,73.252-13.889,108.241,0V91.389
			C202.8,77.191,164.445,77.191,129.501,91.389z"/>
		<path class="st19" d="M16.757,126.303v113.145c35.613-14.751,75.628-14.751,111.241,0V90.383
			c-35.613-14.752-75.628-14.752-111.241,0v22.664V126.303z"/>
		<path class="st3" d="M127.999,240.949c-0.194,0-0.389-0.038-0.574-0.114c-35.497-14.703-74.596-14.703-110.093,0
			c-0.464,0.191-0.991,0.14-1.408-0.139c-0.417-0.278-0.667-0.746-0.667-1.247V126.303c0-0.829,0.671-1.5,1.5-1.5
			c0.829,0,1.5,0.671,1.5,1.5v110.919c34.989-13.889,73.252-13.889,108.241,0V91.389c-34.942-14.198-73.299-14.198-108.241,0v21.658
			c0,0.829-0.671,1.5-1.5,1.5c-0.829,0-1.5-0.671-1.5-1.5V90.383c0-0.607,0.365-1.154,0.926-1.386
			c36.238-15.01,76.151-15.01,112.39,0c0.561,0.232,0.926,0.779,0.926,1.386v149.065c0,0.501-0.25,0.969-0.667,1.247
			C128.582,240.863,128.291,240.949,127.999,240.949z"/>
		<path class="st3" d="M115.178,212.874c-0.146,0-0.295-0.021-0.442-0.067c-27.718-8.549-57.012-8.548-84.716,0
			c-0.791,0.244-1.631-0.199-1.875-0.991c-0.245-0.791,0.199-1.631,0.991-1.875c28.282-8.728,58.188-8.727,86.484,0
			c0.792,0.244,1.236,1.084,0.992,1.875C116.413,212.46,115.819,212.874,115.178,212.874z"/>
		<path class="st3" d="M141.41,212.68c-0.644,0-1.238-0.417-1.435-1.064c-0.241-0.792,0.206-1.63,0.999-1.871
			c27.817-8.452,57.241-8.471,85.089-0.056c0.793,0.24,1.241,1.077,1.002,1.87c-0.24,0.792-1.075,1.239-1.87,1.002
			c-27.278-8.243-56.101-8.224-83.349,0.054C141.701,212.659,141.554,212.68,141.41,212.68z"/>
		<path class="st3" d="M29.577,192.164c-0.641,0-1.234-0.414-1.433-1.058c-0.245-0.792,0.199-1.631,0.991-1.876
			c28.282-8.728,58.188-8.727,86.484,0c0.792,0.244,1.236,1.084,0.992,1.875c-0.244,0.792-1.085,1.237-1.875,0.992
			c-27.718-8.549-57.012-8.548-84.716-0.001C29.873,192.142,29.724,192.164,29.577,192.164z"/>
		<path class="st3" d="M141.41,191.971c-0.643,0-1.238-0.417-1.435-1.064c-0.241-0.792,0.206-1.63,0.999-1.871
			c27.817-8.452,57.241-8.471,85.089-0.056c0.793,0.24,1.241,1.077,1.002,1.87c-0.24,0.792-1.075,1.241-1.87,1.002
			c-27.279-8.244-56.101-8.224-83.349,0.054C141.701,191.95,141.554,191.971,141.41,191.971z"/>
		<path class="st3" d="M115.178,171.454c-0.146,0-0.295-0.021-0.442-0.067c-27.718-8.549-57.012-8.548-84.716-0.001
			c-0.791,0.246-1.631-0.2-1.875-0.991c-0.245-0.791,0.199-1.631,0.991-1.875c28.282-8.728,58.188-8.727,86.484-0.001
			c0.792,0.244,1.236,1.084,0.992,1.876C116.413,171.04,115.819,171.454,115.178,171.454z"/>
		<path class="st3" d="M141.41,171.261c-0.643,0-1.238-0.417-1.435-1.064c-0.241-0.792,0.206-1.63,0.999-1.871
			c27.817-8.451,57.241-8.47,85.089-0.056c0.793,0.24,1.241,1.077,1.002,1.87c-0.24,0.792-1.075,1.24-1.87,1.002
			c-27.279-8.243-56.101-8.223-83.349,0.054C141.701,171.24,141.554,171.261,141.41,171.261z"/>
		<path class="st3" d="M115.178,150.745c-0.146,0-0.295-0.022-0.442-0.067c-27.718-8.549-57.012-8.548-84.716-0.001
			c-0.791,0.244-1.631-0.199-1.875-0.991c-0.245-0.792,0.199-1.631,0.991-1.876c28.282-8.727,58.188-8.727,86.484-0.001
			c0.792,0.244,1.236,1.084,0.992,1.876C116.413,150.331,115.819,150.745,115.178,150.745z"/>
		<path class="st3" d="M141.41,150.551c-0.643,0-1.238-0.417-1.435-1.064c-0.241-0.792,0.206-1.63,0.999-1.871
			c27.817-8.453,57.241-8.471,85.089-0.056c0.793,0.24,1.241,1.077,1.002,1.87c-0.24,0.792-1.075,1.239-1.87,1.002
			c-27.279-8.244-56.101-8.224-83.349,0.054C141.701,150.53,141.554,150.551,141.41,150.551z"/>
		<path class="st3" d="M29.577,130.035c-0.641,0-1.234-0.414-1.433-1.058c-0.245-0.792,0.199-1.631,0.991-1.876
			c28.282-8.728,58.188-8.727,86.484,0c0.792,0.244,1.236,1.084,0.992,1.875c-0.244,0.792-1.085,1.236-1.875,0.992
			c-27.718-8.549-57.012-8.548-84.716-0.001C29.873,130.013,29.724,130.035,29.577,130.035z"/>
		<path class="st3" d="M141.41,129.841c-0.643,0-1.238-0.417-1.435-1.064c-0.241-0.792,0.206-1.63,0.999-1.871
			c27.817-8.451,57.241-8.47,85.089-0.056c0.793,0.24,1.241,1.077,1.002,1.87c-0.24,0.792-1.075,1.241-1.87,1.002
			c-27.279-8.243-56.101-8.223-83.349,0.054C141.701,129.82,141.554,129.841,141.41,129.841z"/>
		<path class="st3" d="M115.178,109.325c-0.146,0-0.295-0.021-0.442-0.067c-27.718-8.549-57.012-8.548-84.716-0.001
			c-0.791,0.246-1.631-0.199-1.875-0.991c-0.245-0.791,0.199-1.631,0.991-1.875c28.282-8.728,58.188-8.727,86.484-0.001
			c0.792,0.244,1.236,1.084,0.992,1.876C116.413,108.911,115.819,109.325,115.178,109.325z"/>
		<path class="st3" d="M141.41,109.132c-0.643,0-1.238-0.417-1.435-1.064c-0.241-0.792,0.206-1.63,0.999-1.871
			c27.817-8.453,57.241-8.472,85.089-0.056c0.793,0.24,1.241,1.077,1.002,1.87c-0.24,0.792-1.075,1.24-1.87,1.002
			c-27.278-8.243-56.101-8.224-83.349,0.054C141.701,109.111,141.554,109.132,141.41,109.132z"/>
		<circle class="st8" cx="128" cy="76.635" r="60"/>
		<path class="st3" d="M128,138.135c-33.911,0-61.5-27.589-61.5-61.5c0-33.911,27.589-61.5,61.5-61.5s61.5,27.589,61.5,61.5
			C189.5,110.546,161.911,138.135,128,138.135z M128,18.135c-32.257,0-58.5,26.243-58.5,58.5c0,32.257,26.243,58.5,58.5,58.5
			s58.5-26.243,58.5-58.5C186.5,44.378,160.257,18.135,128,18.135z"/>
		<path class="st3" d="M128,41.899c-0.829,0-1.5-0.671-1.5-1.5v-5.18c0-0.829,0.671-1.5,1.5-1.5s1.5,0.671,1.5,1.5v5.18
			C129.5,41.228,128.829,41.899,128,41.899z"/>
		<path class="st3" d="M149.689,49.099c-0.312,0-0.627-0.097-0.896-0.298c-0.664-0.495-0.801-1.435-0.305-2.099l3.098-4.152
			c0.495-0.664,1.436-0.801,2.099-0.305c0.664,0.495,0.801,1.435,0.305,2.099l-3.098,4.152
			C150.598,48.891,150.146,49.099,149.689,49.099z"/>
		<path class="st3" d="M162.768,67.841c-0.647,0-1.244-0.422-1.438-1.073c-0.236-0.795,0.217-1.629,1.011-1.865l4.966-1.475
			c0.798-0.233,1.629,0.218,1.865,1.011c0.236,0.794-0.217,1.629-1.011,1.865l-4.966,1.475
			C163.053,67.82,162.909,67.841,162.768,67.841z"/>
		<path class="st3" d="M166.906,92.47c-0.172,0-0.347-0.03-0.518-0.092l-4.862-1.787c-0.777-0.286-1.176-1.148-0.89-1.926
			c0.286-0.778,1.146-1.175,1.925-0.891l4.862,1.787c0.777,0.286,1.176,1.147,0.89,1.925
			C168.091,92.094,167.517,92.47,166.906,92.47z"/>
		<path class="st3" d="M106.311,49.099c-0.457,0-0.909-0.208-1.203-0.603l-3.098-4.152c-0.496-0.664-0.359-1.604,0.305-2.099
			c0.663-0.496,1.604-0.359,2.099,0.305l3.098,4.152c0.496,0.664,0.359,1.604-0.305,2.099
			C106.938,49.002,106.623,49.099,106.311,49.099z"/>
		<path class="st3" d="M93.232,67.841c-0.141,0-0.285-0.02-0.428-0.062l-4.966-1.475c-0.794-0.236-1.247-1.071-1.011-1.865
			c0.236-0.793,1.07-1.247,1.865-1.011l4.966,1.475c0.794,0.236,1.247,1.071,1.011,1.865C94.476,67.419,93.879,67.841,93.232,67.841
			z"/>
		<path class="st3" d="M89.094,92.47c-0.611,0-1.185-0.376-1.408-0.983c-0.286-0.778,0.113-1.64,0.89-1.925l4.862-1.787
			c0.779-0.285,1.64,0.113,1.925,0.891c0.286,0.778-0.113,1.64-0.89,1.926l-4.862,1.787C89.44,92.44,89.266,92.47,89.094,92.47z"/>
		<path class="st14" d="M152.253,75.844c0,6.157-2.287,11.758-6.069,16.039c-3.563,4.032-5.835,9.001-6.773,14.279h-22.826
			c-0.938-5.278-3.196-10.248-6.773-14.294c-3.768-4.266-6.07-9.881-6.07-16.024c0-12.755,10.219-23.545,22.944-24.219
			C140.671,50.892,152.253,62.019,152.253,75.844z"/>
		<path class="st3" d="M139.41,107.662h-22.827c-0.727,0-1.35-0.521-1.477-1.237c-0.917-5.16-3.137-9.85-6.42-13.563
			c-4.156-4.706-6.445-10.75-6.445-17.018c0-13.469,10.93-25.005,24.364-25.717c7.152-0.376,13.94,2.125,19.118,7.038
			c5.178,4.914,8.03,11.547,8.03,18.679c0,6.279-2.289,12.328-6.445,17.032c-3.285,3.718-5.505,8.403-6.42,13.549
			C140.76,107.14,140.137,107.662,139.41,107.662z M117.816,104.662h20.362c1.133-5.203,3.498-9.943,6.881-13.772
			c3.671-4.155,5.693-9.499,5.693-15.045c0-6.3-2.52-12.161-7.095-16.503c-4.575-4.342-10.581-6.552-16.895-6.218
			c-11.867,0.629-21.522,10.821-21.522,22.721c0,5.536,2.022,10.874,5.694,15.031C114.317,94.701,116.682,99.446,117.816,104.662z"
			/>
		<path class="st4" d="M115.276,106.167h25.449c1.68,0,3.042,1.362,3.042,3.042v5.8c0,1.68-1.362,3.042-3.042,3.042h-25.449
			c-1.68,0-3.042-1.362-3.042-3.042v-5.8C112.234,107.529,113.596,106.167,115.276,106.167z"/>
		<path class="st3" d="M140.725,119.551h-25.449c-2.504,0-4.542-2.038-4.542-4.542v-5.8c0-2.504,2.037-4.541,4.542-4.541h25.449
			c2.504,0,4.542,2.037,4.542,4.541v5.8C145.266,117.514,143.229,119.551,140.725,119.551z M115.275,107.668
			c-0.85,0-1.542,0.691-1.542,1.541v5.8c0,0.85,0.691,1.542,1.542,1.542h25.449c0.85,0,1.542-0.692,1.542-1.542v-5.8
			c0-0.85-0.691-1.541-1.542-1.541H115.275z"/>
		<path class="st10" d="M190,80.899c8.639,1.282,17.195,3.348,25.551,6.2c5.174,1.766,8.689,6.58,8.689,12.047v6.463
			c0.61,0.17,1.21,0.35,1.82,0.53c0.8,0.24,1.24,1.08,1.01,1.87c-0.311,1.025-1.632,1.477-2.544,0.594
			c-0.192,0.084-0.094,0.041-0.286,0.126v17.59c0.61,0.17,1.22,0.35,1.82,0.53c0.8,0.24,1.24,1.08,1.01,1.87
			c-0.311,1.025-1.632,1.477-2.544,0.594c-0.192,0.084-0.094,0.042-0.286,0.126v17.59c0.61,0.17,1.21,0.35,1.82,0.53
			c0.8,0.24,1.24,1.08,1.01,1.87c-0.311,1.025-1.632,1.477-2.544,0.594c-0.192,0.084-0.094,0.041-0.286,0.126v17.59
			c0.61,0.17,1.21,0.35,1.82,0.53c0.8,0.24,1.24,1.08,1.01,1.87c-0.311,1.025-1.632,1.477-2.544,0.594
			c-0.192,0.084-0.094,0.042-0.286,0.126v17.59c0.61,0.17,1.21,0.35,1.82,0.53c0.8,0.24,1.24,1.08,1.01,1.87
			c-0.311,1.025-1.632,1.477-2.544,0.594c-0.192,0.084-0.094,0.041-0.286,0.126v17.59c0.61,0.17,1.21,0.35,1.82,0.53
			c0.8,0.24,1.24,1.08,1.01,1.87c-0.311,1.025-1.632,1.477-2.544,0.594c-0.192,0.084-0.094,0.041-0.286,0.126v20.31
			c4.54,1.32,9.05,2.86,13.5,4.63V91.389C222.3,85.119,206.19,81.619,190,80.899z"/>
	</g>
</g>
</svg>
