<?xml version="1.0" encoding="utf-8"?>
<!-- Generator: Adobe Illustrator 24.2.0, SVG Export Plug-In . SVG Version: 6.00 Build 0)  -->
<svg version="1.1" id="Layer_1" xmlns="http://www.w3.org/2000/svg" xmlns:xlink="http://www.w3.org/1999/xlink" x="0px" y="0px"
	 viewBox="0 0 480 111" style="enable-background:new 0 0 480 111;" xml:space="preserve">
<style type="text/css">
	.st0{fill:#161A36;}
</style>
<g>
	<g>
		<path class="st0" d="M115.6,18.5l-6.9,3.4L66.2,43.5v0.1L45.8,54l-9.7,5l0.7,4.4c2.5,15.5,9.8,32,21.5,42.6l4.4,4l4.5-4
			c11.6-10.7,19-27.1,21.5-42.6l0.7-4.8l-15.8-8l-7.3,3.8l15.8,7.9C79.7,77,72.7,91.8,62.7,101c-10-9.2-17-24-19.4-38.7l19.4-9.8
			h0.1l7.4-3.7l3.4-1.8l40.5-20.4c7,9,5.5,21.9-3.5,29c-4.9,3.8-11.2,5.3-17.3,3.9l-0.6,4.6l-0.3,2.2c14.9,3.1,29.4-6.5,32.4-21.4
			c1.5-7.5-0.1-15.2-4.5-21.5C118.9,21.8,117.4,20,115.6,18.5z M32.1,59.7C21,62.2,9.9,55.3,7.4,44.2c-1.4-6.1,0-12.5,3.9-17.4
			l40.5,20.4l7.5-3.7L16.6,22l-6.8-3.4c-1.8,1.4-3.4,3.1-4.7,5C-3.7,36-0.8,53.1,11.6,61.9c6.2,4.4,14,6.1,21.5,4.5l-0.3-2.1
			L32.1,59.7z M52.6,14.9c-4,5-7.3,10.4-9.9,16.3l6,3c3.2-7.7,7.9-14.6,14-20.3c6,5.7,10.8,12.6,14,20.3l5.9-3
			c-2.6-5.8-5.9-11.3-9.9-16.3C75.6,9.6,80.3,5.5,86,3.5L83.6,0c-5.7,2.3-10.5,6.4-13.7,11.7C69,10.8,68.1,9.8,67.1,9l-4.4-4l-4.4,4
			c-1,0.9-1.9,1.8-2.8,2.7c-3.2-5.3-8-9.3-13.7-11.7l-2.4,3.5C45,5.5,49.7,9.6,52.6,14.9z M161.8,27.3h-9.5v10.9l9.5-4.9V27.3z
			 M283.2,27.3h-9.5v10.9l9.5-4.9V27.3z M410.1,27.3h-9.5v10.9l9.5-4.9V27.3z M479.8,27.3h-9.5v10.9l9.5-4.9V27.3z M152.3,43.1v39.1
			h9.6l-0.1-43.9L152.3,43.1z M273.7,43.1v39.1h9.6l-0.1-43.9L273.7,43.1z M400.6,43.1v39.1h9.6l-0.1-43.9L400.6,43.1z M479.9,38.3
			l-9.5,4.8v39.1h9.6L479.9,38.3z M205.9,65.6L205.9,65.6l-19.6-27.3h-11v43.9h8.4V51.9l22.2,30.3h8.2v-44h-8.2V65.6z M224.8,46.5
			h13.9v35.7h9.6V46.5h13.8v-8.1h-37.3L224.8,46.5z M316.5,58.8v8c0.6,0.1,1.1,0.1,1.7,0.1c2.4,0,6.9-0.1,8.9-0.1h1
			c-1.8,4.2-6.7,6.6-11.6,6.6c-7.3,0-13.2-5.9-13.2-13.2S309.2,47,316.5,47c4.7-0.1,9,2.4,11.3,6.4c4.3-2.1,4.6-2.3,8.5-4.3
			c-4.1-7.1-11.6-11.5-19.8-11.5c-8.3,0-15.9,4.5-19.8,11.7c-6,11-2,24.7,9,30.7s24.7,2,30.7-9c2.2-2.9,2.5-11,2.5-12.3
			C331.3,58.8,322.7,58.8,316.5,58.8L316.5,58.8z M374.7,65.9c7.3-1.6,10.4-7.6,10.4-13.5c0-7.1-4.2-14-15.2-14h-19.8v43.8h9.7V66.4
			h4.7l11,15.7h11.8L375,65.9H374.7z M367.3,59h-7.5V45.8h7.5c4.6,0,8.4,0.9,8.4,6.6C375.6,58,371.9,59,367.3,59z M421.4,46.5h13.9
			v35.7h9.6V46.5h13.8v-8.1h-37.3V46.5z"/>
	</g>
</g>
</svg>
