 <svg  version="1.0" xmlns="http://www.w3.org/2000/svg"  width="300.000000pt" height="232.000000pt" viewBox="0 0 300.000000 232.000000"  preserveAspectRatio="xMidYMid meet">  <g transform="translate(0.000000,232.000000) scale(0.100000,-0.100000)" fill="#f5f5f5" stroke="none"> <path d="M210 1937 l0 -142 143 -143 142 -142 170 0 170 0 -93 -93 -92 -92 0 -200 0 -200 -220 -220 -220 -220 0 -147 0 -148 138 0 137 0 283 283 282 282 0 382 0 383 -277 280 -277 280 -143 0 -143 0 0 -143z"/> <path d="M890 1943 l0 -138 317 -317 317 -318 -192 0 -192 0 0 -225 0 -225 -125 -125 -125 -125 0 -140 0 -140 143 0 142 0 178 178 178 178 -1 295 c0 162 2 298 6 302 4 4 55 -43 114 -103 l107 -109 79 -3 79 -3 5 -87 5 -87 278 -280 278 -281 140 0 139 0 0 138 0 137 -143 143 -142 142 -180 0 -180 0 103 103 102 102 0 200 0 200 220 220 220 220 0 142 0 143 -143 0 -143 0 -277 -278 -277 -279 0 -96 0 -97 -190 0 -190 0 -2 168 c0 92 -2 180 -3 195 -2 23 -40 67 -181 208 l-179 179 -142 0 -143 0 0 -137z"/> </g> </svg> 